<svg id="Слой_1" data-name="Слой 1" xmlns="http://www.w3.org/2000/svg" viewBox="0 0 34.15 36.16"><defs><style>.cls-1,.cls-4{fill:#4f80a1;}.cls-1{opacity:0.68;}.cls-2,.cls-3{fill:#fff;}.cls-3{opacity:0.64;}.cls-4{fill-rule:evenodd;}</style></defs><rect class="cls-1" y="2" width="34" height="30" rx="2.01"/><rect class="cls-2" x="7" width="3" height="7" rx="1.03"/><rect class="cls-2" x="24" width="3" height="7" rx="1.03"/><rect class="cls-3" x="2" y="11" width="30" height="18" rx="0.61"/><rect class="cls-2" x="17" y="18" width="4" height="4" rx="0.62"/><path class="cls-4" d="M33,24.85a.82.82,0,0,0-1.62,0l0,.18a.82.82,0,0,1-1.51.3l-.09-.15a.81.81,0,0,0-1.49.61l0,.18a.82.82,0,0,1-1.28.85l-.14-.11a.82.82,0,0,0-1.14,1.15l.1.14A.82.82,0,0,1,25,29.28l-.17-.05a.82.82,0,0,0-.62,1.49l.15.1a.81.81,0,0,1-.3,1.5l-.18,0a.81.81,0,0,0,0,1.61L24,34a.82.82,0,0,1,.3,1.51l-.15.09a.82.82,0,0,0,.62,1.49L25,37a.81.81,0,0,1,.85,1.27l-.1.15a.81.81,0,0,0,1.14,1.14l.14-.11a.82.82,0,0,1,1.28.86l0,.17a.82.82,0,0,0,1.49.62l.09-.15a.82.82,0,0,1,1.51.29l0,.18a.82.82,0,0,0,1.62,0l0-.18A.82.82,0,0,1,34.49,41l.09.15a.82.82,0,0,0,1.49-.62l0-.17a.82.82,0,0,1,1.28-.86l.14.11a.81.81,0,0,0,1.14-1.14l-.1-.15A.81.81,0,0,1,39.34,37l.17,0a.82.82,0,0,0,.62-1.49L40,35.5a.82.82,0,0,1,.3-1.51l.18,0a.81.81,0,0,0,0-1.61l-.18,0a.81.81,0,0,1-.3-1.5l.15-.1a.82.82,0,0,0-.62-1.49l-.17.05A.82.82,0,0,1,38.49,28l.1-.14a.82.82,0,0,0-1.14-1.15l-.14.11A.82.82,0,0,1,36,26l0-.18a.81.81,0,0,0-1.49-.61l-.09.15A.82.82,0,0,1,33,25Zm-.81,14.81a6.5,6.5,0,1,0-6.5-6.5A6.5,6.5,0,0,0,32.15,39.66Z" transform="translate(-7 -6)"/><rect class="cls-2" x="5" y="13" width="4" height="4" rx="0.62"/><rect class="cls-2" x="11" y="13" width="4" height="4" rx="0.62"/><rect class="cls-2" x="17" y="13" width="4" height="4" rx="0.62"/><rect class="cls-2" x="23" y="13" width="4" height="4" rx="0.62"/><rect class="cls-2" x="5" y="18" width="4" height="4" rx="0.62"/><rect class="cls-2" x="11" y="18" width="4" height="4" rx="0.62"/><rect class="cls-2" x="5" y="23" width="4" height="4" rx="0.62"/><rect class="cls-2" x="11" y="23" width="4" height="4" rx="0.62"/><path class="cls-2" d="M28.38,33.76h0v.44h-.08v-.27l-.12.16h0l-.13-.16v.27H28v-.44h0l.17.23Z" transform="translate(-7 -6)"/><path class="cls-2" d="M28.64,34.15a.1.1,0,0,0,.09-.1.09.09,0,0,0-.09-.1.1.1,0,0,0,0,.2Zm0,.06a.16.16,0,0,1-.16-.16.16.16,0,0,1,.32,0A.16.16,0,0,1,28.64,34.21Z" transform="translate(-7 -6)"/><path class="cls-2" d="M29.09,34A.07.07,0,0,0,29,34a.09.09,0,0,0-.09.1.09.09,0,0,0,.09.1.09.09,0,0,0,.08-.06h.06a.14.14,0,0,1-.14.12.16.16,0,0,1-.16-.16.15.15,0,0,1,.16-.16.13.13,0,0,1,.14.11Z" transform="translate(-7 -6)"/><path class="cls-2" d="M29.32,34c.07,0,.1-.05.1-.12h.06a.15.15,0,0,1-.07.15l.09.15h-.07l-.08-.13h-.06v.12h-.07v-.3h.06V34Z" transform="translate(-7 -6)"/><path class="cls-2" d="M29.69,34.15a.09.09,0,0,0,.09-.1.09.09,0,0,0-.09-.1.1.1,0,0,0,0,.2Zm0,.06a.15.15,0,0,1-.15-.16.14.14,0,0,1,.15-.16.15.15,0,0,1,.16.16A.16.16,0,0,1,29.69,34.21Z" transform="translate(-7 -6)"/><path class="cls-2" d="M30.05,34.15s.07,0,.07,0,0,0-.08,0H30v.08ZM30,34s.06,0,.06,0,0,0-.06,0H30V34Zm.09,0a.08.08,0,0,1,.05.08c0,.08-.07.08-.13.08h-.13v-.3H30c.05,0,.13,0,.13.08A.06.06,0,0,1,30.13,34Z" transform="translate(-7 -6)"/><path class="cls-2" d="M30.47,34s0,0-.08,0a.09.09,0,0,0-.09.1.1.1,0,0,0,.09.1.08.08,0,0,0,.08-.06h.07a.15.15,0,0,1-.15.12.16.16,0,0,1-.16-.16.15.15,0,0,1,.16-.16.14.14,0,0,1,.15.11Z" transform="translate(-7 -6)"/><path class="cls-2" d="M30.7,34c.08,0,.1-.05.1-.12h.07a.16.16,0,0,1-.08.15l.1.15h-.07l-.09-.13h-.06v.12H30.6v-.3h.07V34Z" transform="translate(-7 -6)"/><path class="cls-2" d="M31,34.2h0v-.3H31v.18l.19-.18h0v.3h-.07V34Z" transform="translate(-7 -6)"/><path class="cls-2" d="M31.36,33.77a.09.09,0,0,0,.1.09.09.09,0,0,0,.09-.09h0s0,0-.06,0a.07.07,0,0,1-.05,0Zm0,.43h0v-.3h.06v.18l.19-.18h0v.3h-.06V34Z" transform="translate(-7 -6)"/><path class="cls-2" d="M31.83,34.2v-.3H32V34h-.15v.24Z" transform="translate(-7 -6)"/><path class="cls-2" d="M32.23,34.15a.1.1,0,0,0,0-.2.09.09,0,0,0-.09.1A.09.09,0,0,0,32.23,34.15Zm0,.06a.16.16,0,0,1-.16-.16.16.16,0,0,1,.32,0A.16.16,0,0,1,32.23,34.21Z" transform="translate(-7 -6)"/><path class="cls-2" d="M32.68,34s0,0-.08,0a.09.09,0,0,0-.09.1.09.09,0,0,0,.09.1.08.08,0,0,0,.08-.06h.07a.16.16,0,0,1-.31,0,.15.15,0,0,1,.16-.16.13.13,0,0,1,.14.11Z" transform="translate(-7 -6)"/><path class="cls-2" d="M33,34.23c0,.09-.08.16-.18.11v-.05c.05,0,.08,0,.1,0v0l-.13-.3h.07l.09.22h0L33,33.9h.07Z" transform="translate(-7 -6)"/><path class="cls-2" d="M33.24,34v.12a.16.16,0,0,1,0,.08h.13V34Zm-.14.32v-.12h0s0,0,0-.1l0-.15h.22v.25h0v.12h-.06V34.2h-.22v.07Z" transform="translate(-7 -6)"/><path class="cls-2" d="M33.68,34.07l-.07,0s-.07,0-.07.06,0,0,.06,0,.08,0,.08,0v0Zm-.09.14a.1.1,0,0,1-.11-.1.1.1,0,0,1,.11-.1.13.13,0,0,1,.09,0v0c0-.08-.13-.06-.17,0v-.05l.11,0c.07,0,.14,0,.14.11v.12s0,.05,0,0v0c-.05,0-.08,0-.08-.05A.13.13,0,0,1,33.59,34.21Z" transform="translate(-7 -6)"/><path class="cls-2" d="M33.92,34.12a.13.13,0,0,0,.08,0,.1.1,0,0,0,.08-.1A.09.09,0,0,0,34,34a.08.08,0,0,0-.08.09v.08Zm.09-.23a.14.14,0,0,1,.14.16.15.15,0,0,1-.15.16l-.08,0v.18h-.06V34s0-.06,0-.06v0s.09,0,.09.05A.1.1,0,0,1,34,33.89Z" transform="translate(-7 -6)"/><path class="cls-2" d="M34.44,34s0,0-.08,0a.09.09,0,0,0-.09.1.09.09,0,0,0,.09.1.08.08,0,0,0,.08-.06h.07a.16.16,0,0,1-.31,0,.15.15,0,0,1,.16-.16.13.13,0,0,1,.14.11Z" transform="translate(-7 -6)"/><path class="cls-2" d="M34.64,34.2V34h-.1V33.9h.26V34h-.1v.24Z" transform="translate(-7 -6)"/><path class="cls-2" d="M35,34.15s.07,0,.07,0,0,0-.07,0h-.06v.08ZM35,34S35,34,35,34s0,0-.06,0h-.06V34Zm.08,0a.08.08,0,0,1,.06.08c0,.08-.07.08-.13.08h-.13v-.3H35c.06,0,.13,0,.13.08A.06.06,0,0,1,35.06,34Z" transform="translate(-7 -6)"/><path class="cls-2" d="M35.24,34h.16s0-.07-.07-.07A.09.09,0,0,0,35.24,34Zm.22.05h-.22a.08.08,0,0,0,.09.09.2.2,0,0,0,.11,0v0a.2.2,0,0,1-.11,0,.16.16,0,0,1-.17-.17.14.14,0,0,1,.16-.15A.13.13,0,0,1,35.46,34.06Z" transform="translate(-7 -6)"/><path class="cls-2" d="M35.81,33.9v.3h-.07v-.13H35.6v.13h-.07v-.3h.07V34h.14V33.9Z" transform="translate(-7 -6)"/><path class="cls-2" d="M36.17,33.9v.3h-.06v-.13H36v.13H35.9v-.3H36V34h.15V33.9Z" transform="translate(-7 -6)"/><path class="cls-2" d="M36.57,34.2h.07v-.3h-.07Zm-.24-.05h.06a.06.06,0,0,0,.06,0,.06.06,0,0,0-.06-.06h-.06Zm.06.05h-.13v-.3h.06V34h.07a.12.12,0,0,1,.13.11C36.52,34.17,36.45,34.2,36.39,34.2Z" transform="translate(-7 -6)"/><path class="cls-2" d="M36.78,33.77a.08.08,0,0,0,.09.09.09.09,0,0,0,.1-.09h0a.05.05,0,0,1-.06,0,0,0,0,0,1,0,0Zm0,.43h0v-.3h.07v.18L37,33.9h0v.3h-.07V34Z" transform="translate(-7 -6)"/><path class="cls-2" d="M28.16,34.78a.09.09,0,0,0,.09-.1.1.1,0,0,0-.09-.1.09.09,0,0,0-.09.1A.09.09,0,0,0,28.16,34.78Zm0,.06a.15.15,0,0,1-.16-.16.16.16,0,0,1,.16-.16.16.16,0,1,1,0,.32Z" transform="translate(-7 -6)"/><path class="cls-2" d="M28.53,34.78a.08.08,0,0,0,.09-.09c0-.06,0-.1-.09-.1a.1.1,0,0,0-.09.1A.08.08,0,0,0,28.53,34.78Zm.16-.09a.16.16,0,0,1-.31,0,.23.23,0,0,1,.14-.28s.07,0,.05-.05h.07a.09.09,0,0,1-.07.1c-.08,0-.12.05-.13.12a.12.12,0,0,1,.1-.06A.14.14,0,0,1,28.69,34.69Z" transform="translate(-7 -6)"/><path class="cls-2" d="M28.83,34.75l.08,0c.05,0,.08,0,.08-.1s0-.1-.08-.1a.09.09,0,0,0-.08.09v.08Zm.1-.23c.09,0,.13.08.13.16a.15.15,0,0,1-.15.16.11.11,0,0,1-.07,0V35h-.07v-.36s0-.05,0-.05v0c.05,0,.08,0,.08,0A.11.11,0,0,1,28.93,34.52Z" transform="translate(-7 -6)"/><path class="cls-2" d="M29.31,34.71a.11.11,0,0,0-.07,0s-.07,0-.07.06a.06.06,0,0,0,.06,0s.08,0,.08-.06v0Zm-.09.13c-.06,0-.11,0-.11-.09a.1.1,0,0,1,.11-.11l.09,0v0c0-.08-.13-.05-.17,0v-.05a.2.2,0,0,1,.11,0c.07,0,.14,0,.14.11v.12s0,0,0,0v0c-.05,0-.08,0-.08-.06A.13.13,0,0,1,29.22,34.84Z" transform="translate(-7 -6)"/><path class="cls-2" d="M29.46,34.55a.2.2,0,0,1,.11,0c.06,0,.12,0,.12.09s0,0-.05.06a.08.08,0,0,1,.07.08c0,.07-.07.09-.13.09a.25.25,0,0,1-.13,0v-.06a.18.18,0,0,0,.11,0s.07,0,.07,0,0,0-.08,0h0v-.05h0s.06,0,.06,0,0,0-.06,0a.18.18,0,0,0-.1,0Z" transform="translate(-7 -6)"/><path class="cls-2" d="M29.92,34.78a.09.09,0,0,0,.09-.1.1.1,0,0,0-.1-.1.09.09,0,0,0-.08.1A.09.09,0,0,0,29.92,34.78Zm0,.06a.15.15,0,0,1-.16-.16.16.16,0,0,1,.15-.16.16.16,0,0,1,.17.16A.15.15,0,0,1,29.92,34.84Z" transform="translate(-7 -6)"/><path class="cls-2" d="M30.27,34.78s.07,0,.07,0,0,0-.07,0h-.06v.08Zm0-.13s.06,0,.06,0,0,0-.06,0h-.05v.07Zm.09,0a.09.09,0,0,1,.06.08c0,.08-.07.08-.13.08h-.14v-.3h.12c.06,0,.13,0,.13.08A.05.05,0,0,1,30.35,34.67Z" transform="translate(-7 -6)"/><path class="cls-2" d="M30.66,34.71a.11.11,0,0,0-.08,0s-.06,0-.06.06a.05.05,0,0,0,.05,0,.09.09,0,0,0,.09-.06v0Zm-.1.13a.1.1,0,0,1-.11-.09c0-.08.05-.11.12-.11l.09,0v0c0-.08-.14-.05-.17,0v-.05a.2.2,0,0,1,.11,0c.07,0,.13,0,.13.11v.12s0,0,0,0v0c-.05,0-.09,0-.09-.06A.13.13,0,0,1,30.56,34.84Z" transform="translate(-7 -6)"/><path class="cls-2" d="M30.88,34.83v-.24h-.1v-.06H31v.06h-.1v.24Z" transform="translate(-7 -6)"/><path class="cls-2" d="M31.15,34.65h.16s0-.07-.08-.07A.07.07,0,0,0,31.15,34.65Zm.22,0h-.23a.09.09,0,0,0,.1.09.14.14,0,0,0,.11,0v.06l-.11,0c-.1,0-.18-.06-.17-.16a.14.14,0,0,1,.15-.16A.13.13,0,0,1,31.37,34.69Z" transform="translate(-7 -6)"/><path class="cls-2" d="M31.55,34.59l0,.14c0,.09,0,.12-.13.11v-.06c.05,0,.05,0,.06-.06l0-.19h.23v.31h-.07v-.25Z" transform="translate(-7 -6)"/><path class="cls-2" d="M31.87,34.78h.06s.07,0,.07-.05,0,0-.07,0h-.06Zm-.06,0v-.3h.06v.09h.06c.07,0,.13,0,.13.11s-.06.1-.13.1Z" transform="translate(-7 -6)"/><path class="cls-2" d="M32.4,34.53v.3h-.06v-.12h-.15v.12h-.06v-.3h.06v.12h.15v-.12Z" transform="translate(-7 -6)"/><path class="cls-2" d="M32.8,34.83h.07v-.3H32.8Zm-.24,0h.06s.06,0,.06-.05,0,0-.06,0h-.06Zm.06,0h-.13v-.3h.06v.09h.07a.12.12,0,0,1,.13.11C32.75,34.81,32.68,34.83,32.62,34.83Z" transform="translate(-7 -6)"/><path class="cls-2" d="M33,34.4a.08.08,0,0,0,.09.09c.06,0,.1,0,.1-.09h0a.05.05,0,0,1-.06,0s-.05,0-.05,0Zm0,.44h0v-.31H33v.18l.19-.18h0v.3h-.07v-.18Z" transform="translate(-7 -6)"/><path class="cls-2" d="M33.57,34.65c.08,0,.1,0,.1-.12h.07a.15.15,0,0,1-.08.15l.1.15h-.07l-.09-.12h-.06v.12h-.07v-.3h.07v.12Z" transform="translate(-7 -6)"/><path class="cls-2" d="M34,34.78a.09.09,0,0,0,.09-.1.1.1,0,0,0-.09-.1.09.09,0,0,0-.09.1A.09.09,0,0,0,34,34.78Zm0,.06a.15.15,0,0,1-.16-.16.16.16,0,0,1,.16-.16.16.16,0,0,1,0,.32Z" transform="translate(-7 -6)"/><path class="cls-2" d="M34.33,34.76l-.09-.1v.17h-.06v-.3h0l.13.15.14-.15h0v.3h-.06v-.17l-.09.1Z" transform="translate(-7 -6)"/><path class="cls-2" d="M34.86,34.53v.3h-.07v-.24h-.14v.24h-.07v-.3Z" transform="translate(-7 -6)"/><path class="cls-2" d="M35.06,34.59l0,.14c0,.09,0,.12-.13.11v-.06c.05,0,.06,0,.06-.06l0-.19h.23v.31h-.07v-.25Z" transform="translate(-7 -6)"/><path class="cls-2" d="M35.36,34.65h.17a.07.07,0,0,0-.08-.07A.09.09,0,0,0,35.36,34.65Zm.22,0h-.22c0,.06,0,.09.1.09a.15.15,0,0,0,.11,0v.06l-.12,0a.16.16,0,0,1-.17-.16.16.16,0,0,1,.16-.16C35.56,34.52,35.6,34.59,35.58,34.69Z" transform="translate(-7 -6)"/><path class="cls-2" d="M35.76,34.65c.07,0,.1,0,.1-.12h.06c0,.07,0,.12-.08.15l.1.15h-.07l-.08-.13h-.07v.12h-.06v-.3h.06v.12Z" transform="translate(-7 -6)"/><path class="cls-2" d="M36.21,34.63a.08.08,0,0,0-.08-.05.1.1,0,0,0-.09.1.09.09,0,0,0,.09.1.08.08,0,0,0,.08-.06h.07a.15.15,0,0,1-.15.12.16.16,0,1,1,0-.32.15.15,0,0,1,.15.11Z" transform="translate(-7 -6)"/><path class="cls-2" d="M30.65,33.4V31.16h1.46v.44h-.84v1.8Z" transform="translate(-7 -6)"/><path class="cls-2" d="M34.55,31.16h.62v.67a1,1,0,0,0,.66-.67h.63a1.36,1.36,0,0,1-.57.91,1.85,1.85,0,0,1,.73,1.33H36a1.43,1.43,0,0,0-.67-1,1,1,0,0,1-.2,0v1h-.62Z" transform="translate(-7 -6)"/><path class="cls-2" d="M29,33a2.49,2.49,0,0,0-.41-.93V33.4H28V31.16h.63a2.49,2.49,0,0,1,.34.47,1.84,1.84,0,0,1,.24.5,2.3,2.3,0,0,1,.15-.33,3.48,3.48,0,0,1,.22-.36,2.47,2.47,0,0,1,.23-.28h.63V33.4h-.63V32.06a1.58,1.58,0,0,0-.41.92Z" transform="translate(-7 -6)"/><path class="cls-2" d="M33.24,32.92c-.3,0-.48-.27-.48-.64s.19-.65.48-.65.49.29.49.65S33.53,32.92,33.24,32.92Zm.34-1.75a1.26,1.26,0,0,0-.33-.05h0a1.26,1.26,0,0,0-.33.05,1.19,1.19,0,0,0,0,2.23,1.06,1.06,0,0,0,.31.05h0a1.06,1.06,0,0,0,.31-.05,1.19,1.19,0,0,0,0-2.23Z" transform="translate(-7 -6)"/><path class="cls-2" d="M29.81,31.16a1.42,1.42,0,0,0-.18.22l0,.06a3.61,3.61,0,0,0-.23.36,2.08,2.08,0,0,0-.14.32,2.08,2.08,0,0,0-.14-.32,3.61,3.61,0,0,0-.23-.36l0-.06a1.42,1.42,0,0,0-.18-.22H28V33.4h.63V32.06l0,0A2.15,2.15,0,0,1,29,33h.37a2.46,2.46,0,0,1,.37-.88l0,0V33.4h.63V31.16Z" transform="translate(-7 -6)"/></svg>