<svg xmlns="http://www.w3.org/2000/svg" viewBox="0 0 100.16 100.16"><defs><style>.cls-1{fill:#647c97;}</style></defs><g id="Слой_2" data-name="Слой 2"><g id="Слой_1-2" data-name="Слой 1"><g id="Icons"><circle class="cls-1" cx="50.08" cy="50.08" r="15.65"/></g><g id="Icons-2" data-name="Icons"><path class="cls-1" d="M81.38,0H18.78A18.78,18.78,0,0,0,0,18.78v62.6a18.78,18.78,0,0,0,18.78,18.78h62.6a18.78,18.78,0,0,0,18.78-18.78V18.78A18.78,18.78,0,0,0,81.38,0ZM50.08,78.25A28.17,28.17,0,1,1,78.25,50.08,28.17,28.17,0,0,1,50.08,78.25ZM78.25,28.17a6.26,6.26,0,1,1,6.26-6.26A6.26,6.26,0,0,1,78.25,28.17Z"/></g></g></g></svg>