<?xml version="1.0" encoding="utf-8"?>
<!-- Generator: Adobe Illustrator 24.1.1, SVG Export Plug-In . SVG Version: 6.00 Build 0)  -->
<svg version="1.1" id="Слой_1" xmlns="http://www.w3.org/2000/svg" xmlns:xlink="http://www.w3.org/1999/xlink" x="0px" y="0px"
	 viewBox="0 0 970 620" style="enable-background:new 0 0 970 620;" xml:space="preserve">
<style type="text/css">
	.st0{fill:#4F80A1;}
</style>
<g>
	<polygon class="st0" points="42.9,384.9 45.8,384.9 45.8,431.9 38,431.9 38,402.6 24.5,419.9 23.4,419.9 9.8,402.6 9.8,431.9 
		2,431.9 2,384.9 4.9,384.9 23.9,409.1 	"/>
	<path class="st0" d="M70.8,426.1c4.8-0.1,9.6-3.5,9.6-10.4c0-7-5.1-10.5-10-10.4c-4.8,0.1-9.5,3.5-9.5,10.4
		C60.9,422.7,65.9,426.1,70.8,426.1 M70.7,432.5c-8.5,0-17-5.6-17-16.9c0-11.1,8.3-16.7,16.7-16.8c8.6-0.1,17.3,5.5,17.3,16.8
		C87.8,426.9,79.2,432.5,70.7,432.5"/>
	<path class="st0" d="M119.1,410.3c-1.4-3.5-4.8-5.2-8.6-5.2c-5,0-10,3.6-10,10.4c0,7,5,10.5,9.9,10.5c3.6,0,7.2-1.9,8.7-5.9h7
		c-1.7,8.2-8.7,12.2-15.8,12.2c-8.4,0-17-5.6-17-16.8c0-11.1,8.6-16.9,16.9-16.9c7-0.1,13.9,3.8,15.7,11.6H119.1z"/>
	<path class="st0" d="M143.6,412.5c8.1,0,11-5.2,11-12.9h7c0.1,7-1.7,13.2-8.4,16.3l10.4,15.3v0.7h-7.6l-9-13.7
		c-1,0.3-2.3,0.3-3.4,0.3h-3.2v13.3H133v-32.3h7.2v12.8H143.6z"/>
	<path class="st0" d="M184.2,426.1c4.8-0.1,9.6-3.5,9.6-10.4c0-7-5.1-10.5-10-10.4c-4.8,0.1-9.5,3.5-9.5,10.4
		C174.3,422.7,179.3,426.1,184.2,426.1 M184.1,432.5c-8.5,0-17-5.6-17-16.9c0-11.1,8.3-16.7,16.7-16.8c8.6-0.1,17.3,5.5,17.3,16.8
		C201.1,426.9,192.6,432.5,184.1,432.5"/>
	<path class="st0" d="M222.1,426.3c3.1,0,7.6,0,7.6-4.3c0-4.2-4.5-4.4-7.9-4.4h-6v8.8H222.1z M221.4,412.6c2.8,0,6.4-0.3,6.4-3.8
		c0-3.5-3.5-3.9-6.4-3.9h-5.7v7.7H221.4z M230.6,414.6c3.9,1.1,6.2,4.3,6.2,8.2c0,8.4-7.6,9.2-13.9,9.2h-14.2v-32.4H221
		c6,0,14,0.4,14,8.5C235,410.9,233.8,413.4,230.6,414.6"/>
	<path class="st0" d="M268,410.3c-1.4-3.5-4.8-5.2-8.6-5.2c-5,0-10,3.6-10,10.4c0,7,5,10.5,9.9,10.5c3.6,0,7.2-1.9,8.7-5.9h7
		c-1.7,8.2-8.7,12.2-15.8,12.2c-8.4,0-17-5.6-17-16.8c0-11.1,8.6-16.9,16.9-16.9c7-0.1,13.9,3.8,15.7,11.6H268z"/>
	<path class="st0" d="M292.6,412.5c8.1,0,11-5.2,11-12.9h7c0.1,7-1.7,13.2-8.4,16.3l10.4,15.3v0.7h-7.6l-9-13.7
		c-1,0.3-2.3,0.3-3.4,0.3h-3.2v13.3H282v-32.3h7.2v12.8H292.6z"/>
	<polygon class="st0" points="320.7,432 318.7,432 318.7,399.6 325.8,399.6 325.8,419 346,399.6 348.3,399.6 348.3,431.9 
		341.3,431.9 341.3,412.4 	"/>
	<path class="st0" d="M363.5,386.3c0.5,5.9,4.7,9.4,10.2,9.4c5.9,0,10-3.7,10.5-9.4c-1.4-0.2-3.2-0.4-4.7-0.5
		c-0.5,3.1-2.9,4.2-5.9,4.2c-3.1-0.1-5.2-1.4-5.6-4.2L363.5,386.3z M359.8,432h-2v-32.3h7.1V419l20.2-19.5h2.3v32.3h-7v-19.5
		L359.8,432z"/>
	<polygon class="st0" points="413.6,431.9 413.6,399.6 436.3,399.6 436.3,406.1 420.7,406.1 420.7,431.9 	"/>
	<path class="st0" d="M457.1,426.1c4.8-0.1,9.6-3.5,9.6-10.4c0-7-5.1-10.5-10-10.4c-4.8,0.1-9.5,3.5-9.5,10.4
		C447.2,422.7,452.2,426.1,457.1,426.1 M457,432.5c-8.5,0-17-5.6-17-16.9c0-11.1,8.3-16.7,16.7-16.8c8.6-0.1,17.3,5.5,17.3,16.8
		C474.1,426.9,465.5,432.5,457,432.5"/>
	<path class="st0" d="M505.4,410.3c-1.4-3.5-4.8-5.2-8.6-5.2c-5,0-10,3.6-10,10.4c0,7,5,10.5,9.9,10.5c3.6,0,7.2-1.9,8.7-5.9h7
		c-1.7,8.2-8.7,12.2-15.8,12.2c-8.4,0-17-5.6-17-16.8c0-11.1,8.6-16.9,16.9-16.9c7-0.1,13.9,3.8,15.7,11.6H505.4z"/>
	<path class="st0" d="M535.4,434.6c-3.9,9.6-8.2,17.3-18.9,12.4l0.8-5.3c5.8,2.5,8.4-0.3,10.4-5.7l1.5-4l-14.4-31.7v-0.8h7.8l10,24
		h0.2l9.2-24h7.3v0.8L535.4,434.6z"/>
	<path class="st0" d="M575.3,405.7h-9.8l-1.5,12.3c-0.7,4.9-1.3,6.9-3,8.2h14.4V405.7z M550.7,439.3l-0.2-13.1h0.1h0.7
		c4.7,0,5.1-4.6,6-10.3l2.3-16.3h22.8v26.6h4.4l-0.2,13.1h-6.3v-7.4h-23v7.4H550.7z"/>
	<path class="st0" d="M613.3,418.2c-2.4-1.4-5.5-2.3-8.4-2.2c-3.5,0.1-6.6,2.1-6.6,6.1c0,3.2,3,4.7,5.9,4.7c3.8,0,8.3-1.8,9-5.9
		V418.2z M602.8,432.5c-5.9,0-11.6-3.7-11.6-10c-0.2-7.7,5.4-11.4,12.5-11.4c3.1,0,6.7,0.8,9.6,2.4v-3.2c0-8.5-14.5-5.7-18.5-3.7
		l-1.1-5.2c3.3-1.7,7.6-2.5,11.9-2.5c7.8,0,14.8,2.7,14.8,11.6v12.7c0,3-0.1,5,3.3,4.6l0.1,4.2c-5.1,0.9-9,0.9-9.2-5.5
		C612.5,430.8,607.4,432.5,602.8,432.5"/>
	<path class="st0" d="M638.9,423.3c2.7,1.9,5.6,2.7,8.2,2.6c4.9-0.2,8.8-3.7,8.8-10.3c0-5.3-2.9-10.3-8.7-10.3c-5,0-8.4,4.2-8.4,9
		V423.3z M648.8,398.8c9.5,0,14.6,8,14.6,16.8c0,10.4-7.5,17.1-16.1,16.7c-2.7-0.1-5.5-0.9-8.2-2.5v18.8h-7.3v-38.5
		c0-3.7,0.3-5.6-3.4-5.6l-0.1-5c5.4-1.1,9.4-0.2,9.4,5.5C639.6,400.4,644.1,398.8,648.8,398.8"/>
	<path class="st0" d="M694.7,410.3c-1.4-3.5-4.8-5.2-8.6-5.2c-5,0-10,3.6-10,10.4c0,7,5,10.5,9.9,10.5c3.6,0,7.2-1.9,8.7-5.9h7
		c-1.7,8.2-8.7,12.2-15.8,12.2c-8.4,0-17-5.6-17-16.8c0-11.1,8.6-16.9,16.9-16.9c7-0.1,13.9,3.8,15.7,11.6H694.7z"/>
	<polygon class="st0" points="715.8,431.8 715.8,406 705.4,406 705.4,399.6 733.3,399.6 733.3,406 722.9,406 722.9,431.8 	"/>
	<path class="st0" d="M753.1,426.3c3.1,0,7.6,0,7.6-4.3c0-4.2-4.5-4.4-7.9-4.4h-6v8.8H753.1z M752.4,412.6c2.8,0,6.4-0.3,6.4-3.8
		c0-3.5-3.5-3.9-6.4-3.9h-5.7v7.7H752.4z M761.6,414.6c3.9,1.1,6.2,4.3,6.2,8.2c0,8.4-7.6,9.2-13.9,9.2h-14.2v-32.4H752
		c6,0,14,0.4,14,8.5C766,410.9,764.8,413.4,761.6,414.6"/>
	<path class="st0" d="M780.5,411.9h17.8c0.2-4.9-3.8-7.4-8.4-7.4C785,404.5,781.5,406.9,780.5,411.9 M804.2,417.1h-23.8
		c0,5.9,4.6,9.4,10.5,9.4c4,0.2,7.9-0.3,11.7-2l0.9,5.4c-3.7,1.7-8.1,2.7-12.2,2.7c-10.6,0.2-18.5-6.6-18.1-17.5
		c0.2-10.8,8-16.2,16.7-16.2C801.2,398.9,806.3,406.4,804.2,417.1"/>
	<polygon class="st0" points="841.8,399.6 841.8,431.9 834.7,431.9 834.7,418.4 819.1,418.4 819.1,431.9 812,431.9 812,399.6 
		819.1,399.6 819.1,412 834.7,412 834.7,399.6 	"/>
	<polygon class="st0" points="881,399.6 881,431.9 873.9,431.9 873.9,418.4 858.3,418.4 858.3,431.9 851.2,431.9 851.2,399.6 
		858.3,399.6 858.3,412 873.9,412 873.9,399.6 	"/>
	<path class="st0" d="M924.1,431.9h6.8v-32.3h-6.8V431.9z M897.5,415.2v11.1h6.4c3.9,0,7.2-1.7,7.2-5.6c0-3.9-3.3-5.6-7.2-5.6H897.5
		z M903.9,431.9h-13.5v-32.3h7v10h6.5c7.4,0,14.2,2.9,14.2,11.1C918.2,428.9,911.2,431.9,903.9,431.9"/>
	<path class="st0" d="M946.1,386.3c0.5,5.9,4.7,9.4,10.2,9.4c5.9,0,10-3.7,10.5-9.4c-1.4-0.2-3.2-0.4-4.7-0.5
		c-0.5,3.1-2.9,4.2-5.9,4.2c-3.1-0.1-5.2-1.4-5.6-4.2L946.1,386.3z M942.4,432h-2v-32.3h7.1V419l20.2-19.5h2.3v32.3h-7v-19.5
		L942.4,432z"/>
	<path class="st0" d="M19.1,493c4.8-0.1,9.6-3.5,9.6-10.4c0-7-5.1-10.5-10-10.4c-4.8,0.1-9.5,3.5-9.5,10.4
		C9.2,489.5,14.2,493,19.1,493 M19,499.4c-8.5,0-17-5.6-17-16.9c0-11.1,8.3-16.7,16.7-16.8c8.6-0.1,17.3,5.5,17.3,16.8
		C36.1,493.8,27.5,499.4,19,499.4"/>
	<path class="st0" d="M59.3,493.1c6,0,9.8-4.3,9.7-10c-0.1-5.6-3.9-9.9-9.8-9.9c-5.9,0-9.8,4.5-9.7,9.9
		C49.5,489.4,53.8,493.1,59.3,493.1 M76.2,483.1c0,9-5.8,16.3-16.8,16.3c-10.6,0-15.7-6.6-16.8-14.7c-1.7-13.2,1.7-24.6,15.2-29.3
		c2.6-0.9,7.3-2.6,6-5.9h6.7c1.8,5.2-2.8,9.2-7.3,10.9c-8,3.1-12.9,4.7-14.3,12.4c1.9-3.4,6.8-6,11.5-6.1
		C70.5,466.5,76.2,474.4,76.2,483.1"/>
	<path class="st0" d="M91.8,490.2c2.7,1.9,5.6,2.7,8.2,2.6c4.9-0.2,8.8-3.7,8.8-10.3c0-5.4-2.9-10.3-8.7-10.3c-5,0-8.4,4.1-8.4,9
		V490.2z M101.7,465.7c9.5,0,14.6,8,14.6,16.8c0,10.4-7.5,17.1-16.1,16.7c-2.7-0.1-5.5-0.9-8.2-2.5v18.8h-7.3v-38.5
		c0-3.7,0.3-5.6-3.4-5.6l-0.1-5c5.4-1.1,9.4-0.2,9.4,5.5C92.5,467.3,97,465.7,101.7,465.7"/>
	<path class="st0" d="M143.3,485.1c-2.4-1.4-5.5-2.3-8.4-2.2c-3.5,0.1-6.6,2.1-6.6,6.1c0,3.2,3,4.7,5.9,4.7c3.8,0,8.3-1.8,9-5.9
		V485.1z M132.8,499.4c-5.9,0-11.6-3.7-11.6-10c-0.2-7.7,5.4-11.4,12.5-11.4c3.1,0,6.7,0.8,9.6,2.4v-3.2c0-8.5-14.5-5.7-18.5-3.7
		l-1.1-5.2c3.3-1.7,7.6-2.5,11.9-2.5c7.8,0,14.8,2.7,14.8,11.6v12.7c0,3-0.1,5,3.3,4.6l0.1,4.2c-5.1,0.9-9,0.9-9.2-5.5
		C142.5,497.6,137.4,499.4,132.8,499.4"/>
	<path class="st0" d="M159.2,468.4c2.9-1.6,7.5-2.5,11.8-2.5c6.4,0,12.9,2.1,12.9,8.8c0,3.3-1.7,5.9-5.1,6.8c4.1,1,7,4,7,8.3
		c0,7.2-7,9.8-14.1,9.8c-5.1,0-10.4-1.3-13.6-3.3l0.4-6.2c2.2,1.7,7.8,3.3,12.1,3.3c3.9,0,7.5-1.1,7.5-4.5c0-4.3-4.5-4.5-8-4.5h-4.8
		v-5h4.4c3.1,0,6.5-0.3,6.5-3.9c0-3.3-3.3-4.1-6.5-4.1c-3,0-7.6,0.8-10.2,2.3L159.2,468.4z"/>
	<path class="st0" d="M208.3,493c4.8-0.1,9.6-3.5,9.6-10.4c0-7-5.1-10.5-10-10.4c-4.8,0.1-9.5,3.5-9.5,10.4
		C198.4,489.5,203.3,493,208.3,493 M208.2,499.4c-8.5,0-17-5.6-17-16.9c0-11.1,8.3-16.7,16.7-16.8c8.6-0.1,17.3,5.5,17.3,16.8
		C225.2,493.8,216.7,499.4,208.2,499.4"/>
	<path class="st0" d="M246.1,493.2c3.1,0,7.6,0,7.6-4.3c0-4.2-4.5-4.4-7.9-4.4h-6v8.8H246.1z M245.5,479.5c2.8,0,6.4-0.3,6.4-3.8
		c0-3.5-3.5-3.9-6.4-3.9h-5.7v7.7H245.5z M254.6,481.4c3.9,1.1,6.2,4.3,6.2,8.2c0,8.4-7.6,9.2-13.9,9.2h-14.2v-32.4h12.4
		c6,0,14,0.4,14,8.5C259.1,477.8,257.9,480.3,254.6,481.4"/>
	<path class="st0" d="M287.9,485.1c-2.4-1.4-5.5-2.3-8.4-2.2c-3.5,0.1-6.6,2.1-6.6,6.1c0,3.2,3,4.7,5.9,4.7c3.8,0,8.3-1.8,9-5.9
		V485.1z M277.4,499.4c-5.9,0-11.6-3.7-11.6-10c-0.2-7.7,5.4-11.4,12.5-11.4c3.1,0,6.7,0.8,9.6,2.4v-3.2c0-8.5-14.5-5.7-18.5-3.7
		l-1.1-5.2c3.3-1.7,7.6-2.5,11.9-2.5c7.8,0,14.8,2.7,14.8,11.6v12.7c0,3-0.1,5,3.3,4.6l0.1,4.2c-5.1,0.9-9,0.9-9.2-5.5
		C287.1,497.6,281.9,499.4,277.4,499.4"/>
	<polygon class="st0" points="311.6,498.7 311.6,472.9 301.2,472.9 301.2,466.5 329.1,466.5 329.1,472.9 318.7,472.9 318.7,498.7 	
		"/>
	<path class="st0" d="M340.3,478.8h17.8c0.2-4.9-3.8-7.4-8.4-7.4C344.8,471.4,341.3,473.8,340.3,478.8 M364,484h-23.8
		c0,5.9,4.6,9.4,10.5,9.4c4,0.2,7.9-0.3,11.7-2l0.9,5.4c-3.7,1.7-8.1,2.7-12.2,2.7c-10.6,0.2-18.5-6.6-18.1-17.5
		c0.2-10.8,8-16.2,16.7-16.2C361,465.8,366.1,473.3,364,484"/>
	<path class="st0" d="M383.7,473l-1.5,14.4c-0.9,10-3.7,12.9-14,11.5l0.1-5.4c5.6,0.8,6.2-1.6,6.7-6.4l2.4-20.5h24.6v32.3h-7.2V473
		H383.7z"/>
	<path class="st0" d="M418.5,482.1v11.1h6.4c3.9,0,7.2-1.7,7.2-5.6c0-3.8-3.3-5.6-7.2-5.6H418.5z M411.4,498.8v-32.3h7v10h6.5
		c7.4,0,14.2,2.9,14.2,11.1c0,8.1-7,11.1-14.3,11.1H411.4z"/>
	<polygon class="st0" points="475.5,466.5 475.5,498.8 468.4,498.8 468.4,485.3 452.8,485.3 452.8,498.8 445.7,498.8 445.7,466.5 
		452.8,466.5 452.8,478.9 468.4,478.9 468.4,466.5 	"/>
	<path class="st0" d="M518.6,498.8h6.8v-32.3h-6.8V498.8z M492,482.1v11.1h6.4c3.9,0,7.2-1.7,7.2-5.6c0-3.9-3.3-5.6-7.2-5.6H492z
		 M498.4,498.8h-13.5v-32.3h7v10h6.5c7.4,0,14.2,2.9,14.2,11.1C512.7,495.8,505.7,498.8,498.4,498.8"/>
	<path class="st0" d="M540.6,453.2c0.5,5.9,4.7,9.4,10.2,9.4c5.9,0,10-3.7,10.5-9.4c-1.4-0.2-3.2-0.4-4.7-0.5
		c-0.5,3.1-2.9,4.2-5.9,4.2c-3.1-0.1-5.2-1.4-5.6-4.2L540.6,453.2z M536.9,498.9h-2v-32.3h7.1v19.4l20.2-19.5h2.3v32.3h-7v-19.5
		L536.9,498.9z"/>
	<path class="st0" d="M601.3,479.4c8.1,0,11-5.2,11-12.9h7c0.1,7-1.7,13.2-8.4,16.3l10.4,15.3v0.7h-7.6l-9-13.7
		c-1,0.3-2.3,0.3-3.4,0.3H598v13.3h-7.2v-32.3h7.2v12.8H601.3z"/>
	<path class="st0" d="M641.9,493c4.8-0.1,9.6-3.5,9.6-10.4c0-7-5.1-10.5-10-10.4c-4.8,0.1-9.5,3.5-9.5,10.4
		C632,489.5,637,493,641.9,493 M641.8,499.4c-8.5,0-17-5.6-17-16.9c0-11.1,8.3-16.7,16.7-16.8c8.6-0.1,17.3,5.5,17.3,16.8
		C658.9,493.8,650.3,499.4,641.8,499.4"/>
	<polygon class="st0" points="682.9,491.4 673.3,480.8 673.3,498.8 666.4,498.8 666.4,466.5 668.6,466.5 683.2,482.7 698,466.5 
		700.2,466.5 700.2,498.8 693.2,498.8 693.2,480.8 683.6,491.4 	"/>
	<polygon class="st0" points="739.3,466.5 739.3,498.8 732.1,498.8 732.1,472.9 717.1,472.9 717.1,498.8 709.7,498.8 709.7,466.5 	
		"/>
	<path class="st0" d="M760.9,473l-1.5,14.4c-0.9,10-3.7,12.9-14,11.5l0.1-5.4c5.6,0.8,6.2-1.6,6.7-6.4l2.4-20.5h24.6v32.3H772V473
		H760.9z"/>
	<path class="st0" d="M793.9,478.8h17.8c0.2-4.9-3.8-7.4-8.4-7.4C798.5,471.4,794.9,473.8,793.9,478.8 M817.6,484h-23.8
		c0,5.9,4.6,9.4,10.5,9.4c4,0.2,7.9-0.3,11.7-2l0.9,5.4c-3.7,1.7-8.1,2.7-12.2,2.7c-10.6,0.2-18.5-6.6-18.1-17.5
		c0.2-10.8,8-16.2,16.7-16.2C814.7,465.8,819.8,473.3,817.6,484"/>
	<path class="st0" d="M836.1,479.4c8.1,0,11-5.2,11-12.9h7c0.1,7-1.7,13.2-8.4,16.3L856,498v0.7h-7.6l-9-13.7
		c-1,0.3-2.3,0.3-3.4,0.3h-3.2v13.3h-7.2v-32.3h7.2v12.8H836.1z"/>
	<path class="st0" d="M885.4,477.2c-1.4-3.5-4.8-5.2-8.6-5.2c-5,0-10,3.6-10,10.4c0,7,5,10.5,9.9,10.5c3.6,0,7.2-1.9,8.7-5.9h7
		c-1.7,8.2-8.7,12.2-15.8,12.2c-8.4,0-17-5.6-17-16.8c0-11.1,8.6-16.9,16.9-16.9c7-0.1,13.9,3.8,15.7,11.6H885.4z"/>
	<polygon class="st0" points="286.7,347 286.7,110.1 444.5,110.1 444.5,156.6 354.1,156.6 354.1,347 	"/>
	<path class="st0" d="M706,110.1h67.5v70.6c33-11.5,57.6-29.9,70.3-70.6h68.1c-3.7,27.2-18.1,63.7-61.8,95.9
		c32,20.7,71.9,70.1,78.7,141h-62c-8.1-64.6-54.6-102.5-72.1-110.8c-7.2,2.6-15.7,4.3-21.3,5.5V347H706V110.1z"/>
	<path class="st0" d="M133,302.4h-19.6c-7.4-43.5-35.6-89.5-43.9-97.8V347H2V110.1h67.5c12.7,12.1,23.2,28.6,36.6,49.5
		c13.4,20.9,22.7,38.7,26.5,53.2c3.1-10.5,8.8-22.2,15.7-35.1c6.9-12.9,14.9-25.4,24-37.6c9.1-12.2,16.2-22.2,24.7-30h67.1V347
		h-67.1V204.8c-20.8,21.5-36.6,49.1-44.5,97.6H133z"/>
	<path class="st0" d="M566,296.8c-33.1,0-52-29.2-52-67.9c0-38.7,20.4-68.7,52-68.7c32.3,0,51.8,30,51.8,68.7
		C617.8,267.6,596.8,296.8,566,296.8 M601.7,111.4c-11.1-3.7-22.9-5.7-35.2-5.8l-0.6,0c-12.4,0-24.4,2-35.6,5.8
		c-47.5,15.9-81.9,62.5-81.9,117.6c0,55.7,35.1,102.7,83.4,118.1c10.8,3.4,22.2,5.3,34.1,5.3l0.6,0c11.7,0,23-1.9,33.6-5.3
		c48.3-15.4,83.4-62.4,83.4-118.1C683.5,173.9,649.2,127.3,601.7,111.4"/>
	<path class="st0" d="M197.1,110.1h-0.3c-6.8,6.4-12.9,14.2-19.2,23.1c-1.7,2.2-3.3,4.5-5.1,6.9c-9.1,12.2-17.1,24.7-24,37.6
		c-6.7,12.3-12.1,23.5-15.3,33.7c-3.2-10.2-8.6-21.4-15.3-33.7c-6.9-12.9-14.9-25.4-24-37.6c-1.8-2.4-3.5-4.7-5.1-6.9
		c-6.3-8.9-12.4-16.7-19.2-23.1h-0.3H2V347h67.1h0.3V205.2c1.4,1.4,2.7,2.9,4.1,4.4c11.1,15.1,33.4,54.9,39.8,92.8h0.2h19.3h0.3
		h19.3h0.2c6.4-37.9,28.7-77.7,39.8-92.8c1.3-1.5,2.7-3,4.1-4.4V347h0.3h67.1V110.1H197.1z"/>
</g>
</svg>
