<?xml version="1.0" encoding="utf-8"?>
<!-- Generator: Adobe Illustrator 24.1.1, SVG Export Plug-In . SVG Version: 6.00 Build 0)  -->
<svg version="1.1" id="Слой_1" xmlns="http://www.w3.org/2000/svg" xmlns:xlink="http://www.w3.org/1999/xlink" x="0px" y="0px"
	 viewBox="0 0 512 512" style="enable-background:new 0 0 512 512;" xml:space="preserve">
<style type="text/css">
	.st0{fill:#2580A3;}
	.st1{fill:#FEFCE0;}
	.st2{fill:#FFFFFF;}
	.st3{fill:#F3F9FB;}
</style>
<path class="st0" d="M378.9,374.4c-3.9,4-7.8,7.8-11.9,11.5c-3.7,4.1-7.5,8.1-11.5,11.9l95.3,95.3c5.9,5.9,13.5,8.8,21.2,8.8
	c3.2,0,6.4-0.5,9.5-1.5c3.5-10.4,1-22.4-7.3-30.7L378.9,374.4z"/>
<path class="st1" d="M354.2,396.6c4.6-3.6,9.1-7.5,13.5-11.4c4-4.4,7.8-8.9,11.4-13.5l-41.2-41.2c-4,4.3-8.3,8.3-12.7,12.2
	c-3.9,4.4-8,8.6-12.2,12.7L354.2,396.6z"/>
<path class="st0" d="M226,11.8C133.5,24.5,62,104.1,62,200c0,96,71.5,175.5,164,188.2c31.6-4.3,60.7-16.5,85.4-34.4
	c16.3-11.8,30.6-26.1,42.4-42.4C376.6,280.1,390,241.6,390,200C390,104.1,318.5,24.5,226,11.8z"/>
<path class="st2" d="M200,50c82.7,0,150,67.3,150,150s-67.3,150-150,150S50,282.7,50,200S117.3,50,200,50z"/>
<path class="st3" d="M225,52.1C154.1,64,100,125.8,100,200s54.1,136,125,147.9C295.9,336,350,274.2,350,200S295.9,64,225,52.1z"/>
<path d="M500.3,443.7L366.8,310.2C388.5,277.5,400,239.6,400,200C400,89.7,310.3,0,200,0S0,89.7,0,200s89.7,200,200,200
	c39.6,0,77.5-11.5,110.2-33.2l36.9,36.9c0,0,0,0,0,0l96.6,96.6c7.6,7.6,17.6,11.7,28.3,11.7s20.7-4.2,28.3-11.7
	c7.6-7.6,11.7-17.6,11.7-28.3S507.8,451.3,500.3,443.7z M326.5,354.8c10.4-8.5,19.8-17.9,28.3-28.3l28.4,28.4
	c-8.6,10.2-18.1,19.6-28.3,28.3L326.5,354.8z M20,200c0-99.3,80.7-180,180-180s180,80.7,180,180c0,38.2-11.9,74.7-34.3,105.5
	c-11.2,15.5-24.7,29-40.2,40.2v0C274.7,368.1,238.2,380,200,380C100.7,380,20,299.3,20,200z M486.1,486.1c-3.8,3.8-8.8,5.9-14.1,5.9
	s-10.4-2.1-14.1-5.9l-88.8-88.8c10.1-8.7,19.6-18.1,28.3-28.3l88.8,88.8c3.8,3.8,5.9,8.8,5.9,14.1S489.9,482.4,486.1,486.1z"/>
<path d="M360,200c0-88.2-71.8-160-160-160S40,111.8,40,200s71.8,160,160,160S360,288.2,360,200z M200,340c-77.2,0-140-62.8-140-140
	S122.8,60,200,60s140,62.8,140,140S277.2,340,200,340z"/>
<path d="M306.3,170c5.2-2,7.7-7.8,5.8-12.9c-8.6-22.4-23.6-41.6-43.4-55.4C248.5,87.5,224.7,80,200,80c-5.5,0-10,4.5-10,10
	s4.5,10,10,10c41.1,0,78.6,25.8,93.4,64.2c1.5,4,5.3,6.4,9.3,6.4C303.9,170.7,305.1,170.4,306.3,170z"/>
<path d="M310,190c-5.5,0-10,4.5-10,10s4.5,10,10,10s10-4.5,10-10S315.5,190,310,190z"/>
</svg>
