<svg xmlns="http://www.w3.org/2000/svg" viewBox="0 0 200.18 140.79"><defs><style>.cls-1{fill:#647c97;fill-rule:evenodd;}</style></defs><g id="Слой_2" data-name="Слой 2"><g id="Слой_1-2" data-name="Слой 1"><g id="Fill-195"><path class="cls-1" d="M198.18,30.37s-2-13.79-8-19.87c-7.61-8-16.14-8-20.05-8.47-28-2-70-2-70-2H100S58,0,30,2c-3.91.46-12.44.5-20,8.47C4,16.58,2,30.37,2,30.37a303.06,303.06,0,0,0-2,32.4V78a303.06,303.06,0,0,0,2,32.4s2,13.79,8,19.87c7.61,8,17.61,7.72,22.07,8.55,16,1.54,68.06,2,68.06,2s42.06-.06,70.08-2.08c3.91-.47,12.44-.51,20.05-8.48,6-6.08,8-19.87,8-19.87a303.06,303.06,0,0,0,2-32.4V62.77A303.06,303.06,0,0,0,198.18,30.37Zm-118.76,66V40.12L133.5,68.34Z"/></g></g></g></svg>